<svg id="Layer_1" data-name="Layer 1" xmlns="http://www.w3.org/2000/svg" viewBox="0 0 374.09 309.07"><defs><style>.cls-1{fill:#fcc12d;}</style></defs><path class="cls-1" d="M23.36,309.05c-18,.59-29.73-21.76-19.63-36.57L167.42,11a23,23,0,0,1,39.26,0l163.69,261.5c10.05,14.79-1.56,37.19-19.63,36.57Z"/><path d="M350.74,298.29H23.36a12.4,12.4,0,0,1-11.18-6.76,12.91,12.91,0,0,1,.44-13.25L176.31,16.77c4.62-7.88,16.85-7.93,21.48,0L361.48,278.28C367,286.35,360.63,298.67,350.74,298.29ZM23.38,285.47Zm-.07-.11H350.79l0-.08S187.12,23.73,187.09,23.69H187L23.26,285.28A.35.35,0,0,1,23.31,285.36Zm-.1-.21ZM187,23.67Zm.06,0Z"/><path d="M187.05,229.74c21.57.37,21.57,33.13,0,33.5C165.48,262.87,165.48,230.11,187.05,229.74Z"/><path d="M179.64,203.58,174.46,80.74a12.62,12.62,0,1,1,25.18,0l-5.18,122.84a7.41,7.41,0,0,1-14.82,0Z"/></svg>