<svg id="Layer_1" data-name="Layer 1" xmlns="http://www.w3.org/2000/svg" viewBox="0 0 84.41 85.62"><defs><style>.cls-1{fill:#112129;}.cls-2{fill:#fff;fill-rule:evenodd;}</style></defs><path class="cls-1" d="M9.5,42.22c.77-45.29,68.14-45.28,68.91,0C77.64,87.51,10.27,87.51,9.5,42.22Z"/><path class="cls-2" d="M62.79,51.19c-8.82-4-6.84-6.74-13.08.75-3.59,2.74-15.24-9.44-16.32-13-.59-1.09,0-1.65.54-2.16,5.39-4.4,1.64-7.1-.2-13.43-.68-2.86-5.7-2.47-7.26-.8-17.19,12.38,24,53.81,37.51,35,1.15-4.13,1.93-4.94-1.19-6.35ZM43.24,0C11.5-.9-9.4,36.81,7.53,63.25L0,85.62l23.09-7.39C86.15,107.79,112.8,4.64,43.24,0Z"/></svg>